<svg width="697" height="149" viewBox="0 0 697 149" fill="none" xmlns="http://www.w3.org/2000/svg">
<g clip-path="url(#clip0_1_240)">
<path d="M108 91.5C102.477 91.5 98 95.9772 98 101.5V129C98 134.523 93.5228 139 88 139H74.0183C69.0377 139 65 134.962 65 129.982V111.385C65 99.6132 69.6762 88.3238 78 80L74.3648 79.1114C66.2282 77.1225 63.5252 66.9126 69.6116 61.1581C75.5439 55.5494 85.3243 58.4943 87.1735 66.446L88 70C95.0432 62.9568 104.596 59 114.556 59H135.58C140.506 59 144.5 62.9938 144.5 67.9203V81.5C144.5 87.0228 140.023 91.5 134.5 91.5H108Z" fill="url(#paint0_linear_1_240)"/>
<path d="M19 69C19 63.4772 23.4772 59 29 59H55C60.5228 59 65 54.5228 65 49V23C65 17.4772 69.4772 13 75 13H89.5599C93.9451 13 97.5 16.5549 97.5 20.9401V42.8934C97.5 49.6847 94.8022 56.1978 90 61L89.8997 60.8218C85.2547 52.5639 74.2833 50.4955 66.9503 56.4952C65.334 57.8176 64.0065 59.4579 63.0501 61.3144L62.7617 61.8744C59.0075 69.1619 61.7822 78.1135 69 82C62.5873 88.4034 53.8953 92 44.833 92H26.8457C22.5126 92 19 88.4874 19 84.1543V69Z" fill="url(#paint1_linear_1_240)"/>
<path d="M181.669 107L209.749 44H224.149L252.319 107H237.019L213.979 51.38H219.739L196.609 107H181.669ZM195.709 93.5L199.579 82.43H231.979L235.939 93.5H195.709ZM277.416 107.72C273.396 107.72 269.796 106.94 266.616 105.38C263.496 103.82 261.066 101.45 259.326 98.27C257.586 95.03 256.716 90.92 256.716 85.94V58.58H270.756V83.87C270.756 87.89 271.596 90.86 273.276 92.78C275.016 94.64 277.446 95.57 280.566 95.57C282.726 95.57 284.646 95.12 286.326 94.22C288.006 93.26 289.326 91.82 290.286 89.9C291.246 87.92 291.726 85.46 291.726 82.52V58.58H305.766V107H292.446V93.68L294.876 97.55C293.256 100.91 290.856 103.46 287.676 105.2C284.556 106.88 281.136 107.72 277.416 107.72ZM312.653 107L334.343 78.56L334.073 86.3L313.283 58.58H329.033L342.173 76.67L336.233 76.85L349.823 58.58H364.763L343.883 86.03V78.47L365.483 107H349.553L335.783 87.74L341.633 88.55L327.953 107H312.653ZM416.488 44H431.068V107H416.488V44ZM387.868 107H373.288V44H387.868V107ZM417.568 81.17H386.788V68.84H417.568V81.17ZM469.014 107.72C463.494 107.72 458.634 106.64 454.434 104.48C450.294 102.32 447.084 99.38 444.804 95.66C442.524 91.88 441.384 87.59 441.384 82.79C441.384 77.93 442.494 73.64 444.714 69.92C446.994 66.14 450.084 63.2 453.984 61.1C457.884 58.94 462.294 57.86 467.214 57.86C471.954 57.86 476.214 58.88 479.994 60.92C483.834 62.9 486.864 65.78 489.084 69.56C491.304 73.28 492.414 77.75 492.414 82.97C492.414 83.51 492.384 84.14 492.324 84.86C492.264 85.52 492.204 86.15 492.144 86.75H452.814V78.56H484.764L479.364 80.99C479.364 78.47 478.854 76.28 477.834 74.42C476.814 72.56 475.404 71.12 473.604 70.1C471.804 69.02 469.704 68.48 467.304 68.48C464.904 68.48 462.774 69.02 460.914 70.1C459.114 71.12 457.704 72.59 456.684 74.51C455.664 76.37 455.154 78.59 455.154 81.17V83.33C455.154 85.97 455.724 88.31 456.864 90.35C458.064 92.33 459.714 93.86 461.814 94.94C463.974 95.96 466.494 96.47 469.374 96.47C471.954 96.47 474.204 96.08 476.124 95.3C478.104 94.52 479.904 93.35 481.524 91.79L488.994 99.89C486.774 102.41 483.984 104.36 480.624 105.74C477.264 107.06 473.394 107.72 469.014 107.72ZM530.143 107V97.55L529.243 95.48V78.56C529.243 75.56 528.313 73.22 526.453 71.54C524.653 69.86 521.863 69.02 518.083 69.02C515.503 69.02 512.953 69.44 510.433 70.28C507.973 71.06 505.873 72.14 504.133 73.52L499.093 63.71C501.733 61.85 504.913 60.41 508.633 59.39C512.353 58.37 516.133 57.86 519.973 57.86C527.353 57.86 533.083 59.6 537.163 63.08C541.243 66.56 543.283 71.99 543.283 79.37V107H530.143ZM515.383 107.72C511.603 107.72 508.363 107.09 505.663 105.83C502.963 104.51 500.893 102.74 499.453 100.52C498.013 98.3 497.293 95.81 497.293 93.05C497.293 90.17 497.983 87.65 499.363 85.49C500.803 83.33 503.053 81.65 506.113 80.45C509.173 79.19 513.163 78.56 518.083 78.56H530.953V86.75H519.613C516.313 86.75 514.033 87.29 512.773 88.37C511.573 89.45 510.973 90.8 510.973 92.42C510.973 94.22 511.663 95.66 513.043 96.74C514.483 97.76 516.433 98.27 518.893 98.27C521.233 98.27 523.333 97.73 525.193 96.65C527.053 95.51 528.403 93.86 529.243 91.7L531.403 98.18C530.383 101.3 528.523 103.67 525.823 105.29C523.123 106.91 519.643 107.72 515.383 107.72ZM555.99 107V40.22H570.03V107H555.99ZM606.464 107.72C600.764 107.72 596.324 106.28 593.144 103.4C589.964 100.46 588.374 96.11 588.374 90.35V47.87H602.414V90.17C602.414 92.21 602.954 93.8 604.034 94.94C605.114 96.02 606.584 96.56 608.444 96.56C610.664 96.56 612.554 95.96 614.114 94.76L617.894 104.66C616.454 105.68 614.714 106.46 612.674 107C610.694 107.48 608.624 107.72 606.464 107.72ZM580.904 70.46V59.66H614.474V70.46H580.904ZM655.205 57.86C659.045 57.86 662.465 58.64 665.465 60.2C668.525 61.7 670.925 64.04 672.665 67.22C674.405 70.34 675.275 74.36 675.275 79.28V107H661.235V81.44C661.235 77.54 660.365 74.66 658.625 72.8C656.945 70.94 654.545 70.01 651.425 70.01C649.205 70.01 647.195 70.49 645.395 71.45C643.655 72.35 642.275 73.76 641.255 75.68C640.295 77.6 639.815 80.06 639.815 83.06V107H625.775V40.22H639.815V71.99L636.665 67.94C638.405 64.7 640.895 62.21 644.135 60.47C647.375 58.73 651.065 57.86 655.205 57.86Z" fill="#3A7AA8"/>
</g>
<defs>
<linearGradient id="paint0_linear_1_240" x1="119.5" y1="109" x2="78" y2="67" gradientUnits="userSpaceOnUse">
<stop stop-color="#A6DAFF"/>
<stop offset="1" stop-color="#C6E7FF"/>
</linearGradient>
<linearGradient id="paint1_linear_1_240" x1="22" y1="14" x2="81.5" y2="75" gradientUnits="userSpaceOnUse">
<stop stop-color="#62ABE0"/>
<stop offset="1" stop-color="#3A7AA8"/>
</linearGradient>
<clipPath id="clip0_1_240">
<rect width="697" height="149" fill="white"/>
</clipPath>
</defs>
</svg>
